REM DIRINDEX 1\2\5,1\2\6,1\2\7,1\2\8,1\3\9,1\3\10,1\3\11,1\4\12,1\4\13,1\4\14,1\4\15,1\4\16
REM DIRNAME folder01,folder02,folder03,folder04,folder05,folder06,folder07,folder08,folder09,folder10,folder11,folder12,folder13,folder14,folder15,folder16
TITLE ""
FILE "1200_sec03_0692_0701.mp3" MP3
  TRACK 01 AUDIO
    TITLE "0:"
    INDEX 01 00:00:00
  TRACK 02 AUDIO
    TITLE "12:cjc034_06426"
    INDEX 01 00:00:27
  TRACK 03 AUDIO
    TITLE "0:"
    INDEX 01 00:01:34
  TRACK 04 AUDIO
    TITLE "13:cjc034_06427"
    INDEX 01 00:01:69
  TRACK 05 AUDIO
    TITLE "0:"
    INDEX 01 00:03:53
  TRACK 06 AUDIO
    TITLE "14:cjc034_06428"
    INDEX 01 00:04:17
  TRACK 07 AUDIO
    TITLE "0:"
    INDEX 01 00:05:26
  TRACK 08 AUDIO
    TITLE "15:cjc034_06429"
    INDEX 01 00:05:59
  TRACK 09 AUDIO
    TITLE "0:"
    INDEX 01 00:09:51
  TRACK 10 AUDIO
    TITLE "12:cjc034_06430"
    INDEX 01 00:11:11
  TRACK 11 AUDIO
    TITLE "0:"
    INDEX 01 00:12:40
  TRACK 12 AUDIO
    TITLE "13:cjc034_06431"
    INDEX 01 00:12:73
  TRACK 13 AUDIO
    TITLE "0:"
    INDEX 01 00:14:13
  TRACK 14 AUDIO
    TITLE "14:cjc034_06432"
    INDEX 01 00:14:53
  TRACK 15 AUDIO
    TITLE "0:"
    INDEX 01 00:16:08
  TRACK 16 AUDIO
    TITLE "15:cjc034_06433"
    INDEX 01 00:16:38
  TRACK 17 AUDIO
    TITLE "0:"
    INDEX 01 00:21:19
  TRACK 18 AUDIO
    TITLE "12:cjc034_06434"
    INDEX 01 00:22:50
  TRACK 19 AUDIO
    TITLE "0:"
    INDEX 01 00:24:02
  TRACK 20 AUDIO
    TITLE "13:cjc034_06435"
    INDEX 01 00:24:35
  TRACK 21 AUDIO
    TITLE "0:"
    INDEX 01 00:26:73
  TRACK 22 AUDIO
    TITLE "14:cjc034_06436"
    INDEX 01 00:27:28
  TRACK 23 AUDIO
    TITLE "0:"
    INDEX 01 00:28:55
  TRACK 24 AUDIO
    TITLE "15:cjc034_06437"
    INDEX 01 00:29:13
  TRACK 25 AUDIO
    TITLE "0:"
    INDEX 01 00:32:58
  TRACK 26 AUDIO
    TITLE "12:cjc034_06438"
    INDEX 01 00:34:18
  TRACK 27 AUDIO
    TITLE "0:"
    INDEX 01 00:35:31
  TRACK 28 AUDIO
    TITLE "13:cjc034_06439"
    INDEX 01 00:35:66
  TRACK 29 AUDIO
    TITLE "0:"
    INDEX 01 00:37:01
  TRACK 30 AUDIO
    TITLE "14:cjc034_06440"
    INDEX 01 00:37:34
  TRACK 31 AUDIO
    TITLE "0:"
    INDEX 01 00:38:49
  TRACK 32 AUDIO
    TITLE "15:cjc034_06441"
    INDEX 01 00:39:09
  TRACK 33 AUDIO
    TITLE "0:"
    INDEX 01 00:42:10
  TRACK 34 AUDIO
    TITLE "12:cjc034_06442"
    INDEX 01 00:43:39
  TRACK 35 AUDIO
    TITLE "0:"
    INDEX 01 00:44:56
  TRACK 36 AUDIO
    TITLE "13:cjc034_06443"
    INDEX 01 00:45:12
  TRACK 37 AUDIO
    TITLE "0:"
    INDEX 01 00:46:23
  TRACK 38 AUDIO
    TITLE "14:cjc034_06444"
    INDEX 01 00:46:54
  TRACK 39 AUDIO
    TITLE "0:"
    INDEX 01 00:47:70
  TRACK 40 AUDIO
    TITLE "15:cjc034_06445"
    INDEX 01 00:48:30
  TRACK 41 AUDIO
    TITLE "0:"
    INDEX 01 00:53:02
  TRACK 42 AUDIO
    TITLE "12:cjc034_06446"
    INDEX 01 00:54:34
  TRACK 43 AUDIO
    TITLE "0:"
    INDEX 01 00:55:32
  TRACK 44 AUDIO
    TITLE "13:cjc034_06447"
    INDEX 01 00:55:69
  TRACK 45 AUDIO
    TITLE "0:"
    INDEX 01 00:56:61
  TRACK 46 AUDIO
    TITLE "14:cjc034_06448"
    INDEX 01 00:57:21
  TRACK 47 AUDIO
    TITLE "0:"
    INDEX 01 00:58:17
  TRACK 48 AUDIO
    TITLE "15:cjc034_06449"
    INDEX 01 00:58:54
  TRACK 49 AUDIO
    TITLE "0:"
    INDEX 01 01:02:54
  TRACK 50 AUDIO
    TITLE "12:cjc034_06450"
    INDEX 01 01:04:09
  TRACK 51 AUDIO
    TITLE "0:"
    INDEX 01 01:05:24
  TRACK 52 AUDIO
    TITLE "13:cjc034_06451"
    INDEX 01 01:05:58
  TRACK 53 AUDIO
    TITLE "0:"
    INDEX 01 01:07:55
  TRACK 54 AUDIO
    TITLE "14:cjc034_06452"
    INDEX 01 01:08:11
  TRACK 55 AUDIO
    TITLE "0:"
    INDEX 01 01:09:26
  TRACK 56 AUDIO
    TITLE "15:cjc034_06453"
    INDEX 01 01:09:59
  TRACK 57 AUDIO
    TITLE "0:"
    INDEX 01 01:13:16
  TRACK 58 AUDIO
    TITLE "12:cjc034_06454"
    INDEX 01 01:14:57
  TRACK 59 AUDIO
    TITLE "0:"
    INDEX 01 01:15:62
  TRACK 60 AUDIO
    TITLE "13:cjc034_06455"
    INDEX 01 01:16:20
  TRACK 61 AUDIO
    TITLE "0:"
    INDEX 01 01:18:25
  TRACK 62 AUDIO
    TITLE "14:cjc034_06456"
    INDEX 01 01:18:56
  TRACK 63 AUDIO
    TITLE "0:"
    INDEX 01 01:19:64
  TRACK 64 AUDIO
    TITLE "15:cjc034_06457"
    INDEX 01 01:20:20
  TRACK 65 AUDIO
    TITLE "0:"
    INDEX 01 01:25:31
  TRACK 66 AUDIO
    TITLE "12:cjc034_06458"
    INDEX 01 01:26:64
  TRACK 67 AUDIO
    TITLE "0:"
    INDEX 01 01:28:02
  TRACK 68 AUDIO
    TITLE "13:cjc034_06459"
    INDEX 01 01:28:33
  TRACK 69 AUDIO
    TITLE "0:"
    INDEX 01 01:29:48
  TRACK 70 AUDIO
    TITLE "14:cjc034_06460"
    INDEX 01 01:30:09
  TRACK 71 AUDIO
    TITLE "0:"
    INDEX 01 01:31:22
  TRACK 72 AUDIO
    TITLE "15:cjc034_06461"
    INDEX 01 01:31:51
  TRACK 73 AUDIO
    TITLE "0:"
    INDEX 01 01:35:67
  TRACK 74 AUDIO
    TITLE "12:cjc034_06462"
    INDEX 01 01:37:26
  TRACK 75 AUDIO
    TITLE "0:"
    INDEX 01 01:38:49
  TRACK 76 AUDIO
    TITLE "13:cjc034_06463"
    INDEX 01 01:39:04
  TRACK 77 AUDIO
    TITLE "0:"
    INDEX 01 01:39:70
  TRACK 78 AUDIO
    TITLE "14:cjc034_06464"
    INDEX 01 01:40:29
  TRACK 79 AUDIO
    TITLE "0:"
    INDEX 01 01:41:52
  TRACK 80 AUDIO
    TITLE "15:cjc034_06465"
    INDEX 01 01:42:10
  TRACK 81 AUDIO
    TITLE "0:"
    INDEX 01 01:45:04
